<?xml version="1.0" encoding="UTF-8"?>
<svg width="167px" height="40px" viewBox="0 0 167 40" version="1.1" xmlns="http://www.w3.org/2000/svg" xmlns:xlink="http://www.w3.org/1999/xlink">
    <!-- Generator: Sketch 42 (36781) - http://www.bohemiancoding.com/sketch -->
    <title>akvo-logo</title>
    <desc>Created with Sketch.</desc>
    <defs></defs>
    <g id="Page-1" stroke="none" stroke-width="1" fill="none" fill-rule="evenodd">
        <g id="akvo-logo">
            <path d="M70.6377,20.1069 C70.6377,13.6339 72.1437,11.2309 75.5227,11.2309 C78.8207,11.2309 80.4087,13.6339 80.4087,20.1069 C80.4087,25.8889 78.9837,28.1279 75.5227,28.1279 C72.0617,28.1279 70.6377,26.0109 70.6377,20.1069 L70.6377,20.1069 Z M85.4177,20.2699 C85.4177,12.0039 82.1187,7.4849 75.5227,7.4849 C69.0497,7.4849 65.6297,11.5559 65.6297,20.2699 C65.6297,28.7369 69.0087,32.0769 75.5227,32.0769 C81.7117,32.0769 85.4177,28.8199 85.4177,20.2699 L85.4177,20.2699 Z M51.2347,31.5889 L43.4987,8.2179 L48.5477,8.2179 L54.1567,26.4599 L60.3297,8.2179 L64.9267,8.2179 L57.9557,28.8779 C57.4367,30.5289 56.3867,31.5889 54.6897,31.5889 L51.2347,31.5889 Z M29.4057,23.3909 L29.4057,31.5889 L24.7347,31.5889 L24.7347,0.3189 L29.4057,0.3189 L29.4057,18.4379 L36.8157,8.2179 L42.1497,8.2179 L35.3907,16.9709 L44.7227,31.5889 C44.7227,31.5889 39.4007,31.5829 39.3977,31.5639 L32.2147,20.1059 L29.4057,23.3909 Z M14.6057,19.0069 L14.4017,23.4449 C14.3207,26.4989 12.2437,28.3719 9.9237,28.5749 C6.8287,28.8599 5.4857,27.2729 5.4857,25.2369 C5.4857,22.9159 7.0727,21.6539 10.8597,20.7989 C12.2847,20.4739 14.1167,19.7809 14.6057,19.0069 L14.6057,19.0069 Z M14.6867,28.4129 C15.0537,30.7329 16.1127,31.8729 18.0657,31.8729 C19.8987,31.8729 21.2017,31.3839 22.2597,30.8559 L22.2597,28.5349 L21.6087,28.5349 C19.5327,28.5349 19.2467,27.8429 19.2467,26.5809 L19.2467,14.5279 C19.2467,9.6839 15.9897,7.4849 10.3707,7.4849 C4.5487,7.4849 1.3737,9.8059 1.3737,13.3489 C1.3737,14.4879 1.4947,15.0179 1.7387,15.9539 L6.3407,15.6689 C6.1777,14.9759 5.9737,14.5689 5.9737,13.7539 C5.9737,12.3299 6.6257,10.8239 10.1267,10.8239 C13.2617,10.8239 14.6057,12.3709 14.6057,15.3019 C14.2397,16.4829 11.2667,17.3789 6.9507,18.4379 C3.4497,19.2929 0.5177,21.2869 0.5177,25.0339 C0.5177,29.2279 2.6357,32.0769 7.5207,32.0769 C10.4527,32.0769 13.2217,31.0599 14.6867,28.4129 L14.6867,28.4129 Z" id="Fill-1" fill="#260859"></path>
            <path d="M148.9746,21.8163 C146.4516,20.7173 145.1896,17.9903 145.1896,15.3423 C145.1896,10.7823 148.4456,7.8103 154.2696,7.8103 C156.0606,7.8103 157.2536,8.0543 157.9866,8.2983 C158.3846,7.4213 158.8536,6.8273 159.5406,6.2273 C160.4296,5.4493 161.8766,5.0153 163.2106,5.0153 C164.5216,5.0153 165.5626,5.2323 166.7576,5.8623 L165.7836,9.8703 C165.1196,8.7943 164.0666,8.4913 162.8706,8.4913 C161.7656,8.4913 160.8536,8.8223 160.4176,9.5203 C162.0036,10.4563 163.3886,12.2903 163.3886,15.3423 C163.3886,19.6993 160.2946,22.8743 155.2046,22.8743 C153.3726,22.8743 152.2326,22.7123 151.3376,22.4683 C149.7476,22.6303 148.6096,23.2423 148.6096,24.2593 C148.6096,25.3583 149.0976,25.7253 152.9256,25.5633 L156.8336,25.3173 C162.2086,24.9933 164.9766,27.1903 164.9766,31.9963 C164.9766,36.5163 161.8826,39.2423 153.8206,39.2423 C146.8596,39.2423 143.6696,37.4103 143.6696,34.3993 C143.6696,32.3223 145.3516,30.8953 149.1796,30.3253 C145.3126,30.2453 144.2926,28.1283 144.2926,26.4173 C144.2926,24.3003 145.6366,22.4273 148.9746,21.8163 L148.9746,21.8163 Z M150.1566,15.3423 C150.1566,18.7223 151.7856,19.9433 154.2696,19.9433 C157.0376,19.9433 158.4216,18.7223 158.4216,15.3423 C158.4216,12.2903 156.9956,10.6603 154.2696,10.6603 C151.4176,10.6603 150.1566,12.2903 150.1566,15.3423 L150.1566,15.3423 Z M148.1206,33.5023 C148.1206,35.4963 150.0856,36.1823 153.9886,36.1823 C159.2816,36.1823 161.0686,34.7233 161.0686,32.8523 C161.0686,30.6523 159.5626,29.7843 155.9786,29.7843 C154.2696,29.7843 153.3146,30.1723 151.3376,30.4483 C149.7086,31.0593 148.1206,32.1993 148.1206,33.5023 L148.1206,33.5023 Z M130.7326,31.5883 L130.7326,18.9253 C130.7326,14.8543 132.7086,11.8413 135.3476,11.8413 C137.5256,11.8413 138.7636,12.9323 138.7636,15.0553 C138.7636,15.8223 138.6446,16.6113 138.4546,17.3413 L142.5376,16.9523 C142.8226,15.6913 142.9546,14.4583 142.9546,13.0203 C142.9546,9.8043 140.5136,7.6883 137.0526,7.6883 C133.9586,7.6883 131.5056,10.1313 130.6096,13.5513 L130.6096,8.2173 L125.9566,8.2173 L125.9566,31.5883 L130.7326,31.5883 Z M107.7066,20.1073 C107.7066,26.0103 109.1306,28.1283 112.5916,28.1283 C116.0526,28.1283 117.4786,25.8883 117.4786,20.1073 C117.4786,13.6333 115.8886,11.2313 112.5916,11.2313 C109.2106,11.2313 107.7066,13.6333 107.7066,20.1073 L107.7066,20.1073 Z M122.4846,20.2693 C122.4846,28.8203 118.7816,32.0763 112.5916,32.0763 C106.0786,32.0763 102.6976,28.7373 102.6976,20.2693 C102.6976,11.5563 106.1176,7.4853 112.5916,7.4853 C119.1876,7.4853 122.4846,12.0043 122.4846,20.2693 L122.4846,20.2693 Z M93.9886,25.2103 C97.1776,25.2103 98.7736,26.5673 98.7736,28.7723 C98.7736,30.9773 97.1776,32.3013 93.9886,32.3013 C90.7986,32.3013 89.2036,30.9773 89.2036,28.7723 C89.2036,26.5673 90.8676,25.2103 93.9886,25.2103 L93.9886,25.2103 Z" id="Fill-3" fill="#50C8E8"></path>
        </g>
    </g>
</svg>